<svg xmlns="http://www.w3.org/2000/svg" width="32" height="32" fill="none" xmlns:v="https://vecta.io/nano"><g clip-path="url(#B)"><g filter="url(#A)"><path d="M22.667 5.333c1.475 0 2.607 1.124 3.445 2.333l.284.428.26.427.237.411c1.049 1.876 1.963 4.325 2.567 6.745.6 2.401.932 4.909.72 6.881-.213 1.98-1.233 4.108-3.513 4.108-2.045 0-3.657-1.093-4.967-2.161l-1.48-1.241c-1.231-1.008-2.577-1.931-4.22-1.931s-2.991.923-4.219 1.931l-1.48 1.24c-1.312 1.069-2.924 2.163-4.968 2.163-2.281 0-3.301-2.128-3.513-4.108-.211-1.973.12-4.48.72-6.881.604-2.42 1.517-4.869 2.567-6.745l.237-.412.26-.425.284-.428c.839-1.209 1.971-2.333 3.445-2.333.68 0 1.356.165 2.02.36l.791.243.389.115c1.153.331 2.333.616 3.467.616s2.313-.285 3.467-.616l1.18-.356c.664-.196 1.34-.361 2.02-.361zm-11.333 5.333c-.884 0-1.732.351-2.357.976S8 13.116 8 14s.351 1.732.976 2.357 1.473.976 2.357.976 1.732-.351 2.357-.976.976-1.473.976-2.357-.351-1.732-.976-2.357-1.473-.976-2.357-.976zm9.333 0c-.354 0-.693.14-.943.39s-.391.589-.391.943v.667h-.667c-.354 0-.693.14-.943.39s-.391.589-.391.943.14.693.391.943.589.39.943.39h.667V16c0 .354.14.693.391.943s.589.39.943.39.693-.14.943-.39.39-.589.39-.943v-.667h.667c.354 0 .693-.14.943-.39S24 14.354 24 14s-.14-.693-.39-.943-.589-.39-.943-.39H22V12c0-.354-.14-.693-.39-.943s-.589-.39-.943-.39zm-9.333 2.667c.177 0 .346.07.471.195S12 13.823 12 14s-.07.346-.195.471-.295.195-.471.195-.346-.07-.471-.195-.195-.294-.195-.471.07-.346.195-.471.295-.195.471-.195z" fill="#fedf00"/></g></g><defs><filter id="A" x="-2.244" y="5.333" width="36.488" height="29.333" filterUnits="userSpaceOnUse" color-interpolation-filters="sRGB"><feFlood flood-opacity="0" result="A"/><feColorMatrix in="SourceAlpha" values="0 0 0 0 0 0 0 0 0 0 0 0 0 0 0 0 0 0 127 0" result="B"/><feOffset dy="4"/><feGaussianBlur stdDeviation="2"/><feComposite in2="B" operator="out"/><feColorMatrix values="0 0 0 0 0 0 0 0 0 0 0 0 0 0 0 0 0 0 0.25 0"/><feBlend in2="A"/><feBlend in="SourceGraphic"/></filter><clipPath id="B"><path fill="#fff" d="M0 0h32v32H0z"/></clipPath></defs></svg>