<svg xmlns="http://www.w3.org/2000/svg" width="32" height="32" fill="#fedf00" xmlns:v="https://vecta.io/nano"><path fill-rule="evenodd" d="M8.333 7.333c0-.891.275-1.761.787-2.49s1.236-1.283 2.075-1.586 1.749-.34 2.609-.106 1.627.727 2.196 1.413c.725-.882 1.769-1.442 2.905-1.559s2.272.22 3.161.936 1.46 1.754 1.588 2.889-.197 2.274-.904 3.17H24c.438 0 .871.086 1.276.254s.772.413 1.081.723.555.677.723 1.081.254.838.254 1.276V15a1 1 0 0 1-1 1H17.4a.4.4 0 0 1-.283-.117A.4.4 0 0 1 17 15.6v-4.613c-.377-.242-.714-.54-1-.884-.286.344-.623.641-1 .883V15.6a.4.4 0 0 1-.4.4H5.667a1 1 0 0 1-1-1v-1.667c0-.438.086-.871.254-1.276s.413-.772.723-1.081.677-.555 1.081-.723S7.562 10 8 10h1.251c-.596-.761-.919-1.7-.917-2.667zm6.667 0c0-.619-.246-1.212-.683-1.65S13.286 5 12.667 5s-1.212.246-1.65.683-.683 1.031-.683 1.65.246 1.212.683 1.65 1.031.683 1.65.683 1.212-.246 1.65-.683S15 7.952 15 7.333zm2 0c0 .306.06.61.178.893s.289.54.506.757.474.389.757.506.587.178.893.178.61-.06.893-.178.54-.289.757-.506a2.33 2.33 0 0 0 .506-.757c.117-.283.178-.587.178-.893 0-.619-.246-1.212-.683-1.65S19.952 5 19.333 5s-1.212.246-1.65.683S17 6.715 17 7.333z"/><path d="M15 18.2a.4.4 0 0 0-.4-.4H7.532a1.11 1.11 0 0 0-1.093.923c-.296 1.728-.296 3.494 0 5.221l.299 1.745a2.68 2.68 0 0 0 2.34 2.208l1.42.159 4.095.287c.053.001.106-.008.156-.027s.095-.049.133-.086.068-.082.089-.131.031-.102.031-.155V18.2zm2.408 10.143a.4.4 0 0 1-.156-.027c-.05-.019-.095-.049-.133-.086a.4.4 0 0 1-.12-.286V18.2a.4.4 0 0 1 .4-.4h7.068a1.11 1.11 0 0 1 1.093.923c.297 1.728.297 3.493 0 5.221l-.297 1.745c-.098.572-.38 1.097-.802 1.495s-.963.648-1.54.713l-1.42.159-4.095.287z"/></svg>